<?xml version="1.0" standalone="no"?>
<!DOCTYPE svg PUBLIC "-//W3C//DTD SVG 20010904//EN"
 "http://www.w3.org/TR/2001/REC-SVG-20010904/DTD/svg10.dtd">
<svg version="1.0" xmlns="http://www.w3.org/2000/svg"
 width="585.000000pt" height="585.000000pt" viewBox="0 0 585.000000 585.000000"
 preserveAspectRatio="xMidYMid meet">
<metadata>
Created by potrace 1.11, written by Peter Selinger 2001-2013
</metadata>
<g transform="translate(0.000000,585.000000) scale(0.100000,-0.100000)"
fill="#000000" stroke="none">
<path d="M970 4733 c-78 -7 -190 -33 -269 -63 -71 -28 -209 -102 -221 -119 -3
-4 -27 -23 -55 -41 -58 -39 -282 -263 -308 -309 l-18 -30 37 -41 c20 -22 42
-40 48 -40 7 0 32 21 56 46 82 84 180 146 285 180 53 17 90 19 329 19 184 0
270 -3 273 -11 2 -6 -36 -45 -85 -87 -186 -163 -289 -312 -333 -482 -17 -65
-19 -135 -19 -1052 0 -1075 0 -1075 -59 -1189 -69 -135 -154 -184 -321 -184
-96 0 -159 21 -244 79 -39 27 -50 31 -57 20 -12 -19 -11 -280 1 -299 7 -12 33
-15 127 -14 308 2 577 108 774 305 141 141 219 282 281 504 21 79 22 89 28
1080 6 1111 1 1028 75 1176 49 98 189 289 296 404 88 95 119 132 119 144 0 8
-95 11 -347 9 -192 -1 -368 -3 -393 -5z"/>
<path d="M4710 3955 c-58 -8 -123 -18 -145 -23 -59 -14 -172 -59 -205 -82 -15
-11 -31 -20 -36 -20 -4 0 -28 -17 -53 -37 -239 -190 -385 -478 -422 -834 -49
-465 172 -938 536 -1146 138 -80 273 -113 455 -113 337 0 574 126 771 410 59
85 102 182 144 324 42 143 55 234 55 384 0 454 -220 865 -557 1042 -132 69
-195 86 -398 105 -22 2 -87 -3 -145 -10z m170 -182 c135 -33 254 -111 353
-232 150 -182 218 -343 273 -646 24 -132 22 -385 -4 -490 -45 -185 -102 -294
-205 -393 -108 -103 -219 -140 -392 -128 -265 18 -466 164 -617 446 -81 152
-120 285 -154 538 -16 116 -16 148 -6 250 26 257 86 406 215 539 124 128 319
170 537 116z"/>
<path d="M2795 3934 c-46 -5 -176 -31 -220 -45 -183 -55 -281 -98 -430 -187
-137 -81 -293 -198 -309 -233 -10 -22 16 -59 42 -59 8 0 58 32 109 71 242 181
547 289 783 276 177 -11 285 -52 380 -147 128 -128 170 -322 115 -527 -29
-108 -56 -165 -117 -248 -47 -64 -165 -185 -180 -185 -5 0 -19 -9 -31 -21 -58
-54 -351 -169 -433 -169 -26 0 -42 -18 -50 -56 -5 -25 3 -40 53 -100 32 -39
122 -150 201 -246 230 -283 310 -348 438 -356 117 -8 271 80 380 218 27 34 62
78 78 96 21 26 27 40 22 59 -10 38 -32 31 -104 -35 -75 -68 -154 -110 -218
-118 -88 -10 -159 39 -291 200 -54 66 -107 132 -117 147 -11 14 -37 47 -58 72
-21 26 -38 54 -38 62 0 9 16 20 38 27 73 24 240 108 318 161 96 64 238 204
286 280 53 83 104 196 122 267 34 134 15 360 -39 477 -67 143 -211 254 -390
300 -60 15 -264 27 -340 19z"/>
<path d="M2250 3483 c-8 -3 -24 -8 -35 -13 -11 -5 -58 -23 -105 -42 -47 -18
-88 -37 -92 -43 -4 -5 -8 -385 -8 -842 0 -749 2 -833 16 -833 18 0 153 53 224
89 l35 17 3 831 c2 867 3 847 -38 836z"/>
</g>
</svg>
